<svg height="2494" width="720" xmlns="http://www.w3.org/2000/svg">
<rect height="2494" fill="#555" width="720"></rect>
<text fill="#7f7" font-family="Courier New" font-size="12" xml:space="preserve">
<tspan x="10" y="26">21 megabytes installed</tspan>
<tspan x="10" y="42"></tspan>
<tspan x="10" y="58">node_modules</tspan>
<tspan x="10" y="74">├── bluebird@2.3.11 </tspan>
<tspan x="10" y="90">├── clone@1.0.2 </tspan>
<tspan x="10" y="106">├── commander@2.3.0 </tspan>
<tspan x="10" y="122">├─┬ fivebeans@1.1.1 </tspan>
<tspan x="10" y="138">│ ├─┬ js-yaml@3.8.3 </tspan>
<tspan x="10" y="154">│ │ ├─┬ argparse@1.0.9 </tspan>
<tspan x="10" y="170">│ │ │ └── sprintf-js@1.0.3 </tspan>
<tspan x="10" y="186">│ │ └── esprima@3.1.3 </tspan>
<tspan x="10" y="202">│ ├── lodash@2.4.2 </tspan>
<tspan x="10" y="218">│ └── yargs@1.3.3 </tspan>
<tspan x="10" y="234">├─┬ koa@1.4.0 </tspan>
<tspan x="10" y="250">│ ├─┬ accepts@1.3.3 </tspan>
<tspan x="10" y="266">│ │ └── negotiator@0.6.1 </tspan>
<tspan x="10" y="282">│ ├── co@4.6.0 </tspan>
<tspan x="10" y="298">│ ├─┬ composition@2.3.0 </tspan>
<tspan x="10" y="314">│ │ └── any-promise@1.3.0 </tspan>
<tspan x="10" y="330">│ ├── content-disposition@0.5.2 </tspan>
<tspan x="10" y="346">│ ├── content-type@1.0.2 </tspan>
<tspan x="10" y="362">│ ├─┬ cookies@0.7.0 </tspan>
<tspan x="10" y="378">│ │ └── keygrip@1.0.1 </tspan>
<tspan x="10" y="394">│ ├── delegates@1.0.0 </tspan>
<tspan x="10" y="410">│ ├── destroy@1.0.4 </tspan>
<tspan x="10" y="426">│ ├── error-inject@1.0.0 </tspan>
<tspan x="10" y="442">│ ├── escape-html@1.0.3 </tspan>
<tspan x="10" y="458">│ ├── fresh@0.3.0 </tspan>
<tspan x="10" y="474">│ ├─┬ http-assert@1.2.0 </tspan>
<tspan x="10" y="490">│ │ ├── deep-equal@1.0.1 </tspan>
<tspan x="10" y="506">│ │ └── http-errors@1.4.0 </tspan>
<tspan x="10" y="522">│ ├─┬ http-errors@1.6.1 </tspan>
<tspan x="10" y="538">│ │ ├── inherits@2.0.3 </tspan>
<tspan x="10" y="554">│ │ └── setprototypeof@1.0.3 </tspan>
<tspan x="10" y="570">│ ├── koa-is-json@1.0.0 </tspan>
<tspan x="10" y="586">│ ├─┬ mime-types@2.1.15 </tspan>
<tspan x="10" y="602">│ │ └── mime-db@1.27.0 </tspan>
<tspan x="10" y="618">│ ├─┬ on-finished@2.3.0 </tspan>
<tspan x="10" y="634">│ │ └── ee-first@1.1.1 </tspan>
<tspan x="10" y="650">│ ├── only@0.0.2 </tspan>
<tspan x="10" y="666">│ ├── parseurl@1.3.1 </tspan>
<tspan x="10" y="682">│ ├── statuses@1.3.1 </tspan>
<tspan x="10" y="698">│ ├─┬ type-is@1.6.15 </tspan>
<tspan x="10" y="714">│ │ └── media-typer@0.3.0 </tspan>
<tspan x="10" y="730">│ └── vary@1.1.1 </tspan>
<tspan x="10" y="746">├─┬ koa-basic-auth@1.1.2 </tspan>
<tspan x="10" y="762">│ └── basic-auth@1.1.0 </tspan>
<tspan x="10" y="778">├─┬ koa-bodyparser@2.0.1 </tspan>
<tspan x="10" y="794">│ ├─┬ co-body@3.1.0 </tspan>
<tspan x="10" y="810">│ │ ├── qs@4.0.0 </tspan>
<tspan x="10" y="826">│ │ └─┬ raw-body@2.1.7 </tspan>
<tspan x="10" y="842">│ │   ├── bytes@2.4.0 </tspan>
<tspan x="10" y="858">│ │   ├── iconv-lite@0.4.13 </tspan>
<tspan x="10" y="874">│ │   └── unpipe@1.0.0 </tspan>
<tspan x="10" y="890">│ └── copy-to@2.0.1 </tspan>
<tspan x="10" y="906">├─┬ koa-mount@1.3.0 </tspan>
<tspan x="10" y="922">│ ├─┬ debug@2.6.4 </tspan>
<tspan x="10" y="938">│ │ └── ms@0.7.3 </tspan>
<tspan x="10" y="954">│ └── koa-compose@2.5.1 </tspan>
<tspan x="10" y="970">├─┬ koa-route@2.0.0 </tspan>
<tspan x="10" y="986">│ ├── methods@0.1.0 </tspan>
<tspan x="10" y="1002">│ └── path-to-regexp@0.2.5 </tspan>
<tspan x="10" y="1018">├─┬ koa-static@1.4.6 </tspan>
<tspan x="10" y="1034">│ └─┬ koa-send@1.2.4 </tspan>
<tspan x="10" y="1050">│   └─┬ finished@1.2.2 </tspan>
<tspan x="10" y="1066">│     └── ee-first@1.0.3 </tspan>
<tspan x="10" y="1082">├─┬ minimatch@1.0.0 </tspan>
<tspan x="10" y="1098">│ ├── lru-cache@2.7.3 </tspan>
<tspan x="10" y="1114">│ └── sigmund@1.0.1 </tspan>
<tspan x="10" y="1130">├─┬ nunjucks@2.1.0 </tspan>
<tspan x="10" y="1146">│ ├── asap@2.0.5 </tspan>
<tspan x="10" y="1162">│ ├─┬ chokidar@1.6.1 </tspan>
<tspan x="10" y="1178">│ │ ├─┬ anymatch@1.3.0 </tspan>
<tspan x="10" y="1194">│ │ │ ├── arrify@1.0.1 </tspan>
<tspan x="10" y="1210">│ │ │ └─┬ micromatch@2.3.11 </tspan>
<tspan x="10" y="1226">│ │ │   ├─┬ arr-diff@2.0.0 </tspan>
<tspan x="10" y="1242">│ │ │   │ └── arr-flatten@1.0.3 </tspan>
<tspan x="10" y="1258">│ │ │   ├── array-unique@0.2.1 </tspan>
<tspan x="10" y="1274">│ │ │   ├─┬ braces@1.8.5 </tspan>
<tspan x="10" y="1290">│ │ │   │ ├─┬ expand-range@1.8.2 </tspan>
<tspan x="10" y="1306">│ │ │   │ │ └─┬ fill-range@2.2.3 </tspan>
<tspan x="10" y="1322">│ │ │   │ │   ├── is-number@2.1.0 </tspan>
<tspan x="10" y="1338">│ │ │   │ │   ├── isobject@2.1.0 </tspan>
<tspan x="10" y="1354">│ │ │   │ │   ├── randomatic@1.1.6 </tspan>
<tspan x="10" y="1370">│ │ │   │ │   └── repeat-string@1.6.1 </tspan>
<tspan x="10" y="1386">│ │ │   │ ├── preserve@0.2.0 </tspan>
<tspan x="10" y="1402">│ │ │   │ └── repeat-element@1.1.2 </tspan>
<tspan x="10" y="1418">│ │ │   ├─┬ expand-brackets@0.1.5 </tspan>
<tspan x="10" y="1434">│ │ │   │ └── is-posix-bracket@0.1.1 </tspan>
<tspan x="10" y="1450">│ │ │   ├── extglob@0.3.2 </tspan>
<tspan x="10" y="1466">│ │ │   ├── filename-regex@2.0.0 </tspan>
<tspan x="10" y="1482">│ │ │   ├─┬ kind-of@3.1.0 </tspan>
<tspan x="10" y="1498">│ │ │   │ └── is-buffer@1.1.5 </tspan>
<tspan x="10" y="1514">│ │ │   ├─┬ normalize-path@2.1.1 </tspan>
<tspan x="10" y="1530">│ │ │   │ └── remove-trailing-separator@1.0.1 </tspan>
<tspan x="10" y="1546">│ │ │   ├─┬ object.omit@2.0.1 </tspan>
<tspan x="10" y="1562">│ │ │   │ ├─┬ for-own@0.1.5 </tspan>
<tspan x="10" y="1578">│ │ │   │ │ └── for-in@1.0.2 </tspan>
<tspan x="10" y="1594">│ │ │   │ └── is-extendable@0.1.1 </tspan>
<tspan x="10" y="1610">│ │ │   ├─┬ parse-glob@3.0.4 </tspan>
<tspan x="10" y="1626">│ │ │   │ ├── glob-base@0.3.0 </tspan>
<tspan x="10" y="1642">│ │ │   │ └── is-dotfile@1.0.2 </tspan>
<tspan x="10" y="1658">│ │ │   └─┬ regex-cache@0.4.3 </tspan>
<tspan x="10" y="1674">│ │ │     ├── is-equal-shallow@0.1.3 </tspan>
<tspan x="10" y="1690">│ │ │     └── is-primitive@2.0.0 </tspan>
<tspan x="10" y="1706">│ │ ├── async-each@1.0.1 </tspan>
<tspan x="10" y="1722">│ │ ├── glob-parent@2.0.0 </tspan>
<tspan x="10" y="1738">│ │ ├── inherits@2.0.1 </tspan>
<tspan x="10" y="1754">│ │ ├─┬ is-binary-path@1.0.1 </tspan>
<tspan x="10" y="1770">│ │ │ └── binary-extensions@1.8.0 </tspan>
<tspan x="10" y="1786">│ │ ├─┬ is-glob@2.0.1 </tspan>
<tspan x="10" y="1802">│ │ │ └── is-extglob@1.0.0 </tspan>
<tspan x="10" y="1818">│ │ ├── path-is-absolute@1.0.1 </tspan>
<tspan x="10" y="1834">│ │ └─┬ readdirp@2.1.0 </tspan>
<tspan x="10" y="1850">│ │   ├── graceful-fs@4.1.11 </tspan>
<tspan x="10" y="1866">│ │   ├─┬ minimatch@3.0.3 </tspan>
<tspan x="10" y="1882">│ │   │ └─┬ brace-expansion@1.1.7 </tspan>
<tspan x="10" y="1898">│ │   │   ├── balanced-match@0.4.2 </tspan>
<tspan x="10" y="1914">│ │   │   └── concat-map@0.0.1 </tspan>
<tspan x="10" y="1930">│ │   ├─┬ readable-stream@2.2.9 </tspan>
<tspan x="10" y="1946">│ │   │ ├── buffer-shims@1.0.0 </tspan>
<tspan x="10" y="1962">│ │   │ ├── core-util-is@1.0.2 </tspan>
<tspan x="10" y="1978">│ │   │ ├── isarray@1.0.0 </tspan>
<tspan x="10" y="1994">│ │   │ ├── process-nextick-args@1.0.7 </tspan>
<tspan x="10" y="2010">│ │   │ ├── string_decoder@1.0.0 </tspan>
<tspan x="10" y="2026">│ │   │ └── util-deprecate@1.0.2 </tspan>
<tspan x="10" y="2042">│ │   └── set-immediate-shim@1.0.1 </tspan>
<tspan x="10" y="2058">│ └─┬ optimist@0.6.1 </tspan>
<tspan x="10" y="2074">│   ├── minimist@0.0.10 </tspan>
<tspan x="10" y="2090">│   └── wordwrap@0.0.3 </tspan>
<tspan x="10" y="2106">├─┬ sequelize@3.12.1 </tspan>
<tspan x="10" y="2122">│ ├── bluebird@2.11.0 </tspan>
<tspan x="10" y="2138">│ ├── depd@1.1.0 </tspan>
<tspan x="10" y="2154">│ ├── dottie@1.1.1 </tspan>
<tspan x="10" y="2170">│ ├── generic-pool@2.2.0 </tspan>
<tspan x="10" y="2186">│ ├── inflection@1.12.0 </tspan>
<tspan x="10" y="2202">│ ├── lodash@3.10.1 </tspan>
<tspan x="10" y="2218">│ ├── moment@2.18.1 </tspan>
<tspan x="10" y="2234">│ ├── moment-timezone@0.4.1 </tspan>
<tspan x="10" y="2250">│ ├── node-uuid@1.4.8 </tspan>
<tspan x="10" y="2266">│ ├── semver@5.3.0 </tspan>
<tspan x="10" y="2282">│ ├── shimmer@1.0.0 </tspan>
<tspan x="10" y="2298">│ ├── toposort-class@1.0.1 </tspan>
<tspan x="10" y="2314">│ ├── validator@4.9.0 </tspan>
<tspan x="10" y="2330">│ ├─┬ wellknown@0.4.2 </tspan>
<tspan x="10" y="2346">│ │ ├─┬ concat-stream@1.5.2 </tspan>
<tspan x="10" y="2362">│ │ │ ├─┬ readable-stream@2.0.6 </tspan>
<tspan x="10" y="2378">│ │ │ │ └── string_decoder@0.10.31 </tspan>
<tspan x="10" y="2394">│ │ │ └── typedarray@0.0.6 </tspan>
<tspan x="10" y="2410">│ │ └── minimist@1.1.3 </tspan>
<tspan x="10" y="2426">│ └── wkx@0.1.0 </tspan>
<tspan x="10" y="2442">└─┬ ssdb@0.3.8 </tspan>
<tspan x="10" y="2458">  ├── create-error.js@0.0.5 </tspan>
<tspan x="10" y="2474">  └── promisify.js@0.0.1</tspan>
</text>
</svg>
